<svg width="1180" height="282" viewBox="0 0 1180 282" fill="none" xmlns="http://www.w3.org/2000/svg">
<g clip-path="url(#clip0_2662_1170)">
<path d="M4.70134 245.046V281.407H0V245.046H4.70134Z" fill="white"/>
<path d="M13.2933 262.363C13.2933 259.665 13.2393 257.454 13.0771 255.296H17.2381L17.4543 259.504H17.6164C19.0754 257.022 21.5071 254.702 25.8302 254.702C29.3968 254.702 32.0987 256.86 33.2335 259.935H33.3416C34.1521 258.479 35.1789 257.346 36.2596 256.537C37.8267 255.35 39.556 254.702 42.0417 254.702C45.5002 254.702 50.6339 256.968 50.6339 266.031V281.407H45.9865V266.625C45.9865 261.608 44.1492 258.587 40.3125 258.587C37.6106 258.587 35.5031 260.583 34.6925 262.902C34.4764 263.55 34.3142 264.413 34.3142 265.276V281.407H29.6669V265.762C29.6669 261.608 27.8296 258.587 24.2091 258.587C21.2369 258.587 19.0754 260.96 18.3189 263.334C18.0487 264.035 17.9406 264.844 17.9406 265.654V281.407H13.2933V262.363Z" fill="white"/>
<path d="M58.3617 262.363C58.3617 259.665 58.3076 257.454 58.1455 255.296H62.3065L62.5226 259.504H62.6847C64.1438 257.022 66.5755 254.702 70.8986 254.702C74.4651 254.702 77.167 256.86 78.3018 259.935H78.4099C79.2205 258.479 80.2472 257.346 81.328 256.537C82.8951 255.35 84.6243 254.702 87.1101 254.702C90.5686 254.702 95.7022 256.968 95.7022 266.031V281.407H91.0549V266.625C91.0549 261.608 89.2176 258.587 85.3809 258.587C82.679 258.587 80.5715 260.583 79.7609 262.902C79.5447 263.55 79.3826 264.413 79.3826 265.276V281.407H74.7353V265.762C74.7353 261.608 72.898 258.587 69.2774 258.587C66.3053 258.587 64.1438 260.96 63.3872 263.334C63.117 264.035 63.009 264.844 63.009 265.654V281.407H58.3617V262.363Z" fill="white"/>
<path d="M127.098 268.135C127.098 277.792 120.397 282 114.075 282C106.996 282 101.538 276.821 101.538 268.567C101.538 259.827 107.266 254.702 114.507 254.702C121.748 254.702 127.098 260.151 127.098 268.135ZM106.348 268.405C106.348 274.124 109.644 278.439 114.291 278.439C118.938 278.439 122.235 274.178 122.235 268.297C122.235 263.873 120.019 258.263 114.399 258.263C108.779 258.263 106.348 263.442 106.348 268.405Z" fill="white"/>
<path d="M132.88 281.407C132.988 279.626 133.097 276.983 133.097 274.663V243.104H137.798V259.504H137.906C139.581 256.591 142.607 254.702 146.822 254.702C153.307 254.702 157.9 260.097 157.846 268.028C157.846 277.361 151.956 282 146.12 282C142.337 282 139.311 280.543 137.366 277.091H137.203L136.987 281.407H132.88ZM137.798 270.941C137.798 271.534 137.906 272.128 138.014 272.667C138.933 275.958 141.689 278.224 145.147 278.224C150.119 278.224 153.091 274.178 153.091 268.189C153.091 262.956 150.389 258.479 145.309 258.479C142.067 258.479 139.041 260.691 138.068 264.305C137.96 264.845 137.798 265.492 137.798 266.247V270.941Z" fill="white"/>
<path d="M169.14 247.959C169.194 249.577 168.005 250.872 166.114 250.872C164.439 250.872 163.25 249.577 163.25 247.959C163.25 246.34 164.493 244.992 166.222 244.992C167.951 244.992 169.14 246.286 169.14 247.959ZM163.844 281.407V255.296H168.6V281.407H163.844Z" fill="white"/>
<path d="M176.489 243.104H181.245V281.407H176.489V243.104Z" fill="white"/>
<path d="M194.535 247.959C194.589 249.577 193.4 250.872 191.509 250.872C189.833 250.872 188.645 249.577 188.645 247.959C188.645 246.34 189.887 244.992 191.617 244.992C193.346 244.992 194.535 246.286 194.535 247.959ZM189.239 281.407V255.296H193.994V281.407H189.239Z" fill="white"/>
<path d="M204.532 269.214C204.64 275.634 208.747 278.278 213.502 278.278C216.907 278.278 218.96 277.684 220.743 276.929L221.554 280.328C219.879 281.083 217.015 281.946 212.854 281.946C204.802 281.946 199.993 276.659 199.993 268.783C199.993 260.906 204.64 254.702 212.259 254.702C220.797 254.702 223.067 262.201 223.067 267.002C223.067 267.973 222.959 268.729 222.905 269.214H204.532ZM218.474 265.816C218.528 262.794 217.231 258.101 211.881 258.101C207.072 258.101 204.964 262.525 204.586 265.816H218.474Z" fill="white"/>
<path d="M228.957 263.442C228.957 260.367 228.903 257.723 228.741 255.296H232.902L233.064 260.421H233.28C234.469 256.914 237.333 254.702 240.522 254.702C241.062 254.702 241.44 254.756 241.873 254.864V259.342C241.386 259.234 240.9 259.18 240.251 259.18C236.901 259.18 234.523 261.716 233.875 265.276C233.767 265.923 233.659 266.679 233.659 267.488V281.407H228.957V263.442Z" fill="white"/>
<path d="M370.028 75.851C364.554 69.1817 357.789 65.8436 349.74 65.8436C346.197 65.8436 342.918 66.4876 339.899 67.7723C336.879 69.0603 334.282 70.8069 332.11 73.0154C329.935 75.2272 328.226 77.8572 326.977 80.912C325.727 83.9668 325.105 87.261 325.105 90.798C325.105 94.335 325.727 97.7505 326.977 100.805C328.223 103.86 329.955 106.514 332.171 108.763C334.383 111.015 336.98 112.782 339.959 114.066C342.938 115.354 346.157 115.995 349.622 115.995C357.187 115.995 363.993 112.782 370.032 106.349V134.321L367.617 135.164C363.993 136.448 360.612 137.396 357.471 137.996C354.33 138.596 351.23 138.899 348.173 138.899C341.895 138.899 335.873 137.713 330.118 135.342C324.359 132.972 319.29 129.637 314.902 125.335C310.512 121.036 306.992 115.931 304.334 110.024C301.676 104.116 300.349 97.6663 300.349 90.6732C300.349 83.6802 301.656 77.2705 304.274 71.4441C306.888 65.6177 310.39 60.5938 314.781 56.3724C319.168 52.1543 324.261 48.8567 330.057 46.4864C335.852 44.1161 341.932 42.9292 348.291 42.9292C351.915 42.9292 355.478 43.3102 358.981 44.0756C362.483 44.841 366.168 46.0245 370.032 47.6328V75.8443L370.028 75.851Z" fill="white"/>
<path d="M380.535 104.905C380.535 100.323 381.461 96.0444 383.311 92.0657C385.162 88.087 387.739 84.631 391.039 81.6975C394.339 78.7641 398.263 76.4545 402.812 74.7652C407.358 73.076 412.333 72.233 417.727 72.233C423.121 72.233 427.971 73.0591 432.52 74.7045C437.066 76.3533 441.014 78.6427 444.354 81.5762C447.695 84.513 450.292 88.0061 452.143 92.0657C453.994 96.1253 454.919 100.606 454.919 105.509C454.919 110.411 453.973 114.892 452.082 118.952C450.191 123.012 447.593 126.508 444.294 129.442C440.991 132.378 437.026 134.648 432.398 136.253C427.768 137.861 422.756 138.663 417.362 138.663C411.969 138.663 407.136 137.857 402.63 136.253C398.121 134.644 394.237 132.355 390.975 129.381C387.715 126.407 385.159 122.85 383.305 118.709C381.45 114.572 380.528 109.97 380.528 104.905H380.535ZM403.603 105.148C403.603 107.239 403.984 109.147 404.751 110.873C405.514 112.603 406.521 114.11 407.77 115.395C409.017 116.683 410.506 117.684 412.239 118.409C413.968 119.134 415.802 119.495 417.734 119.495C419.666 119.495 421.496 119.134 423.229 118.409C424.958 117.684 426.447 116.683 427.697 115.395C428.943 114.11 429.95 112.603 430.717 110.873C431.48 109.147 431.865 107.276 431.865 105.266C431.865 103.257 431.483 101.51 430.717 99.7803C429.95 98.0539 428.943 96.5467 427.697 95.2587C426.447 93.9741 424.958 92.9693 423.229 92.2444C421.496 91.5195 419.666 91.1587 417.734 91.1587C415.802 91.1587 413.968 91.5195 412.239 92.2444C410.506 92.9693 409.017 93.9741 407.77 95.2587C406.521 96.5467 405.514 98.0303 404.751 99.7196C403.984 101.409 403.603 103.216 403.603 105.145V105.148Z" fill="white"/>
<path d="M489.345 74.5225V109.366C489.345 117.003 493.047 120.82 500.457 120.82C507.867 120.82 511.568 117.003 511.568 109.366V74.5225H533.427V113.584C533.427 121.943 530.667 128.214 525.156 132.392C519.64 136.569 511.406 138.66 500.46 138.66C489.514 138.66 481.276 136.569 475.764 132.392C470.249 128.214 467.493 121.943 467.493 113.584V74.5225H489.352H489.345Z" fill="white"/>
<path d="M548.281 74.5225H570.139V84.6512C572.473 80.9558 575.334 78.1235 578.715 76.151C582.095 74.1819 586.04 73.1974 590.549 73.1974H592.42C593.102 73.1974 593.889 73.2783 594.774 73.4402V94.2978C591.876 92.8513 588.735 92.1264 585.355 92.1264C580.282 92.1264 576.479 93.6336 573.942 96.6479C571.406 99.6623 570.139 104.062 570.139 109.848V136.374H548.281V74.5225Z" fill="white"/>
<path d="M631.243 92.73V136.374H609.385V92.73H602.14V74.5259H609.385V55.9576H631.243V74.5259H643.682V92.73H631.243Z" fill="white"/>
<path d="M652.136 50.7719C652.136 49.0826 652.457 47.4979 653.102 46.011C653.747 44.524 654.632 43.2192 655.76 42.093C656.888 40.9668 658.195 40.0834 659.684 39.4394C661.174 38.7954 662.764 38.4751 664.453 38.4751C666.142 38.4751 667.733 38.7988 669.222 39.4394C670.711 40.0834 672.018 40.9668 673.147 42.093C674.271 43.2192 675.159 44.524 675.805 46.011C676.45 47.4979 676.77 49.086 676.77 50.7719C676.77 52.4578 676.446 54.0492 675.805 55.5328C675.159 57.0197 674.275 58.328 673.147 59.4508C672.018 60.5769 670.711 61.4603 669.222 62.1044C667.733 62.7484 666.142 63.0687 664.453 63.0687C662.764 63.0687 661.17 62.7484 659.684 62.1044C658.195 61.4603 656.884 60.5769 655.76 59.4508C654.632 58.3246 653.747 57.0197 653.102 55.5328C652.457 54.0459 652.136 52.4578 652.136 50.7719ZM675.443 74.5225V136.374H653.585V74.5225H675.443Z" fill="white"/>
<path d="M710.102 109.127C710.102 118.531 714.53 123.234 723.385 123.234C728.134 123.234 731.717 121.306 734.132 117.448H755.268C750.999 131.596 740.333 138.667 723.264 138.667C718.029 138.667 713.24 137.884 708.893 136.317C704.546 134.749 700.821 132.52 697.721 129.624C694.62 126.731 692.226 123.275 690.533 119.256C688.841 115.236 687.997 110.738 687.997 105.752C687.997 100.765 688.801 95.9668 690.412 91.8263C692.023 87.6858 694.316 84.169 697.295 81.2761C700.274 78.3831 703.878 76.151 708.103 74.5831C712.331 73.0153 717.1 72.233 722.413 72.233C727.725 72.233 732.356 73.0153 736.544 74.5831C740.728 76.151 744.271 78.4236 747.173 81.3941C750.07 84.368 752.282 88.0061 753.816 92.3051C755.346 96.6074 756.109 101.449 756.109 106.834V109.123H710.095L710.102 109.127ZM735.706 96.4658C734.98 93.411 733.491 90.9598 731.238 89.112C728.982 87.2643 726.246 86.3405 723.027 86.3405C719.647 86.3405 716.887 87.2272 714.756 88.994C712.622 90.7642 711.274 93.2559 710.71 96.4692H735.71L735.706 96.4658Z" fill="white"/>
<path d="M768.551 74.5225H790.41V84.6512C792.744 80.9558 795.604 78.1235 798.985 76.151C802.366 74.1819 806.311 73.1974 810.819 73.1974H812.691C813.373 73.1974 814.16 73.2783 815.045 73.4402V94.2978C812.147 92.8513 809.006 92.1264 805.625 92.1264C800.552 92.1264 796.749 93.6336 794.213 96.6479C791.676 99.6623 790.41 104.062 790.41 109.848V136.374H768.551V74.5225Z" fill="white"/>
<path d="M852.848 87.905L824.468 45.4647H853.692L866.01 68.976L881.225 45.4647H910.449L880.377 87.905L914.313 136.374H885.45L867.215 106.716L845.84 136.374H817.216L852.841 87.905H852.848Z" fill="url(#paint0_linear_2662_1170)"/>
<path d="M943.663 167.239H921.804V74.5225H943.663V81.3941C948.33 75.5273 954.693 72.5939 962.745 72.5939C967.173 72.5939 971.3 73.457 975.123 75.1868C978.946 76.9165 982.266 79.2666 985.087 82.2405C987.903 85.2143 990.099 88.7108 991.669 92.73C993.24 96.7491 994.023 101.048 994.023 105.63C994.023 110.213 993.24 114.474 991.669 118.409C990.099 122.347 987.927 125.804 985.147 128.777C982.371 131.751 979.088 134.081 975.306 135.77C971.52 137.46 967.413 138.303 962.988 138.303C955.261 138.303 948.817 135.649 943.666 130.345V167.239H943.663ZM971.199 105.63C971.199 103.702 970.854 101.874 970.172 100.144C969.486 98.4181 968.5 96.911 967.213 95.623C965.923 94.3383 964.414 93.3133 962.684 92.5479C960.952 91.7859 959.081 91.4015 957.068 91.4015C955.055 91.4015 953.325 91.7623 951.633 92.4872C949.941 93.2121 948.472 94.2169 947.226 95.5016C945.976 96.7896 944.97 98.2967 944.206 100.023C943.44 101.753 943.058 103.58 943.058 105.509C943.058 107.438 943.42 109.245 944.146 110.934C944.872 112.623 945.875 114.09 947.165 115.334C948.452 116.582 949.962 117.587 951.694 118.349C953.423 119.114 955.257 119.495 957.189 119.495C959.121 119.495 960.931 119.134 962.623 118.409C964.316 117.684 965.781 116.683 967.031 115.395C968.277 114.11 969.284 112.623 970.05 110.934C970.814 109.245 971.199 107.478 971.199 105.63Z" fill="url(#paint1_linear_2662_1170)"/>
<path d="M1026.15 109.127C1026.15 118.531 1030.57 123.234 1039.43 123.234C1044.18 123.234 1047.76 121.306 1050.18 117.448H1071.31C1067.04 131.596 1056.38 138.667 1039.31 138.667C1034.07 138.667 1029.28 137.884 1024.94 136.317C1020.59 134.749 1016.87 132.52 1013.76 129.624C1010.66 126.731 1008.27 123.275 1006.58 119.256C1004.89 115.236 1004.04 110.738 1004.04 105.752C1004.04 100.765 1004.84 95.9668 1006.46 91.8263C1008.07 87.6858 1010.36 84.169 1013.34 81.2761C1016.32 78.3831 1019.92 76.151 1024.15 74.5831C1028.38 73.0153 1033.14 72.233 1038.46 72.233C1043.77 72.233 1048.4 73.0153 1052.59 74.5831C1056.77 76.151 1060.32 78.4236 1063.22 81.3941C1066.11 84.368 1068.33 88.0061 1069.86 92.3051C1071.39 96.6074 1072.15 101.449 1072.15 106.834V109.123H1026.14L1026.15 109.127ZM1051.75 96.4658C1051.02 93.411 1049.53 90.9598 1047.28 89.112C1045.03 87.2643 1042.29 86.3405 1039.07 86.3405C1035.69 86.3405 1032.93 87.2272 1030.8 88.994C1028.67 90.7642 1027.32 93.2559 1026.75 96.4692H1051.75L1051.75 96.4658Z" fill="url(#paint2_linear_2662_1170)"/>
<path d="M1084.6 74.5225H1106.45V84.6512C1108.79 80.9558 1111.65 78.1235 1115.03 76.151C1118.41 74.1819 1122.35 73.1974 1126.86 73.1974H1128.73C1129.42 73.1974 1130.2 73.2783 1131.09 73.4402V94.2978C1128.19 92.8513 1125.05 92.1264 1121.67 92.1264C1116.6 92.1264 1112.79 93.6336 1110.26 96.6479C1107.72 99.6623 1106.45 104.062 1106.45 109.848V136.374H1084.6V74.5225Z" fill="url(#paint3_linear_2662_1170)"/>
<path d="M1167.56 92.73V136.374H1145.7V92.73H1138.46V74.5259H1145.7V55.9576H1167.56V74.5259H1180V92.73H1167.56Z" fill="url(#paint4_linear_2662_1170)"/>
<g clip-path="url(#clip1_2662_1170)">
<path d="M72.0923 205.416L60.3966 221.512H15.9062L44.98 181.594C52.4348 191.212 61.6523 199.264 72.0923 205.416Z" fill="white"/>
<path d="M61.4105 223.5H12L44.9304 178.284L46.5506 180.375C53.8231 189.758 62.7556 197.604 73.0996 203.703L74.9848 204.813L61.4072 223.5H61.4105ZM19.816 219.524H59.3861L69.2132 205.999C59.9758 200.281 51.865 193.19 45.053 184.874L19.816 219.524Z" fill="url(#paint5_linear_2662_1170)"/>
<path d="M217.64 4.98792L190.455 42.4376C189.643 41.321 188.779 40.1912 187.861 39.0547C181.002 30.5695 172.663 23.6713 163.389 18.549L173.11 4.98792H217.64Z" fill="white"/>
<path d="M190.458 45.8204L188.848 43.6072C188.043 42.4972 187.188 41.3873 186.316 40.3039C179.707 32.1268 171.672 25.3942 162.431 20.2885L160.473 19.2084L172.089 3H221.54L190.455 45.8204H190.458ZM166.291 17.9129C175.171 23.1214 182.94 29.8042 189.408 37.8057C189.752 38.2298 190.09 38.6605 190.428 39.0945L213.744 6.97921H174.134L166.295 17.9162L166.291 17.9129Z" fill="url(#paint6_linear_2662_1170)"/>
<path d="M203.228 70.6135L174.492 78.8999C173.332 75.5966 172.027 72.5584 170.619 69.7653C163.19 55.0379 152.883 47.1623 145.726 43.1897C140.816 40.4662 137.387 39.5783 137.387 39.5783C117.295 34.8205 102.289 37.0735 91.1702 42.3614L75.0977 19.5431C88.2049 12.9199 101.895 9.5702 112.912 8.40394C130.628 6.53195 148.251 10.1765 163.389 18.5491C172.663 23.6714 181.002 30.5696 187.861 39.0548C188.779 40.1912 189.643 41.3211 190.455 42.4376C201.422 57.5063 203.228 70.6135 203.228 70.6135Z" fill="white"/>
<path d="M173.239 81.3319L172.617 79.5593C171.53 76.468 170.261 73.4729 168.843 70.6599C161.683 56.466 151.796 48.8322 144.762 44.9259C140.336 42.4708 137.155 41.5729 136.903 41.5033C119.485 37.385 104.387 38.2762 92.0251 44.1539L90.511 44.8729L72.1489 18.8043L74.2031 17.7672C85.932 11.8398 99.6058 7.8109 112.706 6.42596C130.764 4.51753 148.625 8.10909 164.357 16.8097C174.048 22.1639 182.48 29.2277 189.411 37.8057C190.329 38.9389 191.22 40.1051 192.069 41.2681C203.201 56.5653 205.126 69.7852 205.202 70.3418L205.438 72.0448L173.243 81.3286L173.239 81.3319ZM116.603 34.9895C123.276 34.9895 130.366 35.8741 137.847 37.6467L137.887 37.6566C138.036 37.6964 141.621 38.6407 146.694 41.4536C154.218 45.6283 164.781 53.7756 172.398 68.8741C173.62 71.2994 174.737 73.8506 175.728 76.478L200.932 69.2087C200.054 65.2825 197.125 54.9783 188.848 43.6072C188.04 42.4973 187.188 41.3874 186.314 40.3039C179.704 32.1268 171.669 25.3943 162.428 20.2886C147.413 11.9856 130.363 8.55638 113.121 10.3787C106.136 11.1175 92.5585 13.3838 78.0631 20.2985L91.8462 39.8633C99.2745 36.6097 107.551 34.9828 116.603 34.9828V34.9895Z" fill="black"/>
<path d="M166.715 208.05C153.973 215.419 143.314 217.218 143.314 217.218C142.512 217.367 141.714 217.513 140.922 217.649C116.069 221.939 91.8856 217.092 72.0923 205.416C61.6522 199.264 52.4348 191.212 44.9799 181.594C35.0038 168.732 28.1851 153.074 25.8327 135.434C19.8622 90.6653 34.5001 61.618 37.1839 56.7476C37.5384 56.1048 37.8797 55.4554 38.2176 54.8027C40.2155 50.956 42.4818 47.3976 44.9667 44.1108L64.389 70.6003C62.1724 75.484 61.3606 78.8999 61.3606 78.8999C56.2549 97.3249 55.7845 114.772 56.8911 128.632C57.6564 138.214 60.3567 146.957 64.6176 154.631C70.5748 165.356 79.5835 173.99 90.6332 179.894C97.7964 183.728 105.821 186.408 114.429 187.767C121.45 188.873 128.659 188.896 135.753 187.478C140.209 186.587 144.192 185.02 147.75 182.999L166.715 208.05Z" fill="white"/>
<path d="M123.136 221.164C104.755 221.164 86.7503 216.37 71.082 207.129C60.3007 200.774 50.9904 192.594 43.4097 182.813C32.9299 169.302 26.1709 153.011 23.8616 135.699C17.8414 90.5692 32.4528 61.2171 35.4414 55.79C35.8158 55.1108 36.1769 54.4183 36.4519 53.8915C38.4465 50.0481 40.779 46.3572 43.3799 42.9147L44.9902 40.7843L66.6787 70.365L66.1983 71.4252C64.101 76.0472 63.3025 79.3339 63.2925 79.3638L63.276 79.4333C58.9886 94.8996 57.5076 111.4 58.8727 128.476C59.5983 137.558 62.1163 146.033 66.354 153.667C72.0395 163.901 80.76 172.367 91.5678 178.142C98.6118 181.912 106.408 184.49 114.737 185.802C121.881 186.928 128.819 186.836 135.362 185.527C139.365 184.728 143.201 183.294 146.767 181.269L148.281 180.408L169.654 208.643L167.706 209.77C154.801 217.231 144.089 219.1 143.642 219.176C142.864 219.322 142.055 219.468 141.253 219.607C135.22 220.647 129.153 221.164 123.133 221.164H123.136ZM44.9736 47.4804C43.1347 50.1078 41.4615 52.871 39.9838 55.7171C39.7022 56.2638 39.3245 56.9861 38.9269 57.7051C36.0411 62.94 21.9498 91.2716 27.8043 135.169C30.0209 151.785 36.5016 167.417 46.5507 180.375C53.8233 189.758 62.7558 197.604 73.1031 203.703C93.0919 215.495 117.057 219.749 140.584 215.691C141.369 215.555 142.158 215.412 142.95 215.263C143.076 215.24 152.382 213.603 163.754 207.431L147.194 185.56C143.698 187.359 139.988 188.658 136.141 189.43C129.137 190.831 121.728 190.931 114.118 189.731C105.348 188.346 97.1307 185.63 89.6925 181.647C78.2088 175.511 68.935 166.502 62.8784 155.595C58.3591 147.458 55.6787 138.439 54.9067 128.787C53.5052 111.257 55.0293 94.3032 59.4326 78.3963C59.5287 78.0053 60.2775 75.0565 62.1031 70.8421L44.9703 47.4771L44.9736 47.4804Z" fill="black"/>
<path d="M206.246 153.441C203.224 166.459 198.138 176.883 192.131 185.212L170.824 155.168C173.445 149.134 174.491 144.708 174.491 144.708L206.246 153.441Z" fill="white"/>
<path d="M192.118 188.628L168.554 155.403L169.001 154.376C171.51 148.597 172.547 144.294 172.56 144.25L173.037 142.249L175.022 142.793L208.618 152.033L208.187 153.892C205.358 166.088 200.497 177.015 193.748 186.375L192.121 188.628H192.118ZM173.09 154.922L192.115 181.75C197.403 173.831 201.345 164.803 203.86 154.846L175.883 147.15C175.37 148.879 174.472 151.622 173.09 154.922Z" fill="black"/>
<path d="M217.64 221.181L176.682 221.217L166.716 208.05L147.751 182.999L117.454 142.981L90.6335 179.894C79.5838 173.99 70.5751 165.356 64.6179 154.631L95.2058 112.635L64.3892 70.6002L44.967 44.1108L16.2842 4.98792H64.8498L75.0977 19.543L91.1702 42.3614L118.501 81.1761L145.726 43.1897C152.883 47.1623 163.19 55.0378 170.619 69.7652L140.087 111.827L170.824 155.168L192.132 185.212L217.64 221.181Z" fill="white"/>
<path d="M175.695 223.205L117.487 146.318L91.2233 182.462L89.6959 181.647C78.2088 175.511 68.9384 166.502 62.8784 155.595L62.2622 154.485L92.7407 112.639L12.3613 3H65.8802L118.515 77.7436L145.14 40.5921L146.687 41.4502C154.208 45.6249 164.774 53.7722 172.391 68.8674L172.938 69.9508L142.532 111.84L221.484 223.165L175.695 223.205ZM117.421 139.645L177.669 219.229L213.794 219.196L137.639 111.814L168.289 69.5897C161.696 57.0623 152.989 49.8328 146.293 45.8138L118.488 84.6119L63.8194 6.9759H20.2071L97.6675 112.632L66.9802 154.763C72.3908 164.031 80.326 171.78 90.057 177.307L117.421 139.645Z" fill="url(#paint7_linear_2662_1170)"/>
</g>
</g>
<defs>
<linearGradient id="paint0_linear_2662_1170" x1="817.22" y1="90.9193" x2="914.317" y2="90.9193" gradientUnits="userSpaceOnUse">
<stop stop-color="#FF512F"/>
<stop offset="1" stop-color="#DD2476"/>
</linearGradient>
<linearGradient id="paint1_linear_2662_1170" x1="921.804" y1="119.916" x2="994.023" y2="119.916" gradientUnits="userSpaceOnUse">
<stop stop-color="#FF512F"/>
<stop offset="1" stop-color="#DD2476"/>
</linearGradient>
<linearGradient id="paint2_linear_2662_1170" x1="1004.04" y1="105.448" x2="1072.16" y2="105.448" gradientUnits="userSpaceOnUse">
<stop stop-color="#FF512F"/>
<stop offset="1" stop-color="#DD2476"/>
</linearGradient>
<linearGradient id="paint3_linear_2662_1170" x1="1084.6" y1="104.784" x2="1131.09" y2="104.784" gradientUnits="userSpaceOnUse">
<stop stop-color="#FF512F"/>
<stop offset="1" stop-color="#DD2476"/>
</linearGradient>
<linearGradient id="paint4_linear_2662_1170" x1="1138.45" y1="96.1658" x2="1180" y2="96.1658" gradientUnits="userSpaceOnUse">
<stop stop-color="#FF512F"/>
<stop offset="1" stop-color="#DD2476"/>
</linearGradient>
<linearGradient id="paint5_linear_2662_1170" x1="12" y1="200.894" x2="74.9882" y2="200.894" gradientUnits="userSpaceOnUse">
<stop stop-color="#FF512F"/>
<stop offset="1" stop-color="#DD2476"/>
</linearGradient>
<linearGradient id="paint6_linear_2662_1170" x1="160.47" y1="24.4102" x2="221.54" y2="24.4102" gradientUnits="userSpaceOnUse">
<stop stop-color="#FF512F"/>
<stop offset="1" stop-color="#DD2476"/>
</linearGradient>
<linearGradient id="paint7_linear_2662_1170" x1="12.3613" y1="113.103" x2="221.487" y2="113.103" gradientUnits="userSpaceOnUse">
<stop stop-color="#FF512F"/>
<stop offset="1" stop-color="#DD2476"/>
</linearGradient>
<clipPath id="clip0_2662_1170">
<rect width="1180" height="282" fill="white"/>
</clipPath>
<clipPath id="clip1_2662_1170">
<rect width="209.54" height="220.5" fill="white" transform="translate(12 3)"/>
</clipPath>
</defs>
</svg>
